<svg xmlns="http://www.w3.org/2000/svg" width="1200" height="630" viewBox="0 0 1200 630" role="img" aria-labelledby="title desc">
  <title id="title">PostNot — Post APIs. Not your data.</title>
  <desc id="desc">A dark teal social card for the private, local-first desktop API client.</desc>
  <defs>
    <linearGradient id="background" x1="0" y1="0" x2="1" y2="1">
      <stop offset="0" stop-color="#182b27"/>
      <stop offset="0.55" stop-color="#101a18"/>
      <stop offset="1" stop-color="#0b1312"/>
    </linearGradient>
    <radialGradient id="glow" cx="0" cy="0" r="1" gradientTransform="translate(1010 90) rotate(140) scale(520 420)">
      <stop stop-color="#de7c4f" stop-opacity=".34"/>
      <stop offset="1" stop-color="#de7c4f" stop-opacity="0"/>
    </radialGradient>
    <filter id="shadow" x="-20%" y="-20%" width="140%" height="140%">
      <feDropShadow dx="0" dy="18" stdDeviation="24" flood-color="#000" flood-opacity=".32"/>
    </filter>
  </defs>
  <rect width="1200" height="630" rx="34" fill="url(#background)"/>
  <rect width="1200" height="630" rx="34" fill="url(#glow)"/>
  <path d="M0 520C228 450 335 594 590 518c252-75 362-52 610 31v81H0z" fill="#de7c4f" opacity=".06"/>
  <g transform="translate(78 74)">
    <rect width="64" height="64" rx="15" fill="#f2efe7" filter="url(#shadow)"/>
    <path d="M18 17h20c11 0 17 6 17 15s-6 15-17 15h-8v9H18zm12 10v10h8c4 0 6-2 6-5s-2-5-6-5z" fill="#173330"/>
    <rect x="47" y="17" width="8" height="11" rx="2" fill="#de7c4f"/>
  </g>
  <text x="160" y="117" fill="#eaf0ea" font-family="Inter, Segoe UI, sans-serif" font-size="34" font-weight="700">PostNot</text>
  <text x="78" y="270" fill="#f5f7f2" font-family="Inter, Segoe UI, sans-serif" font-size="78" font-weight="750" letter-spacing="-4">Post APIs.</text>
  <text x="78" y="355" fill="#f5f7f2" font-family="Inter, Segoe UI, sans-serif" font-size="78" font-weight="750" letter-spacing="-4">Not your data.</text>
  <text x="82" y="428" fill="#a7b7b0" font-family="Inter, Segoe UI, sans-serif" font-size="28">Private, local-first desktop API work.</text>
  <g transform="translate(80 492)" font-family="Inter, Segoe UI, sans-serif" font-size="21" font-weight="650">
    <rect width="254" height="54" rx="27" fill="#de7c4f"/>
    <text x="127" y="34" fill="#111917" text-anchor="middle">Free &amp; open source</text>
    <text x="284" y="34" fill="#a7b7b0">Windows · macOS · Linux</text>
  </g>
  <g transform="translate(760 162)" filter="url(#shadow)">
    <rect width="366" height="286" rx="19" fill="#172724" stroke="#38504b"/>
    <rect width="366" height="42" rx="19" fill="#1f3531"/>
    <circle cx="22" cy="21" r="5" fill="#de7c4f"/>
    <circle cx="40" cy="21" r="5" fill="#657e77"/>
    <circle cx="58" cy="21" r="5" fill="#657e77"/>
    <rect x="18" y="62" width="74" height="204" rx="8" fill="#10201d"/>
    <rect x="108" y="62" width="238" height="36" rx="8" fill="#203833"/>
    <rect x="108" y="112" width="238" height="68" rx="8" fill="#13221f" stroke="#2d4640"/>
    <rect x="108" y="194" width="146" height="72" rx="8" fill="#13221f" stroke="#2d4640"/>
    <rect x="267" y="194" width="79" height="72" rx="8" fill="#13221f" stroke="#2d4640"/>
    <rect x="116" y="70" width="38" height="20" rx="5" fill="#de7c4f"/>
    <rect x="164" y="75" width="150" height="10" rx="5" fill="#61756f" opacity=".6"/>
  </g>
</svg>
